<svg width="382" height="347" viewBox="0 0 382 347" fill="none" xmlns="http://www.w3.org/2000/svg">
<path fill-rule="evenodd" clip-rule="evenodd" d="M186.229 2.41836C195.243 2.23303 210.513 2.97433 219.896 3.90096C229.095 5.0129 243.261 7.05147 250.988 8.7194C258.898 10.202 273.616 14.2791 283.735 17.615C293.854 21.1361 308.387 26.8812 315.93 30.773C323.473 34.6648 334.512 40.9659 340.399 44.8577C346.102 48.9348 354.933 56.9038 359.716 62.8342C364.5 68.5792 371.307 79.1427 374.802 86.3704C380.689 98.2312 381.241 100.64 381.241 116.022C381.241 129.922 380.505 134.184 376.826 141.968C374.25 147.157 366.891 156.794 360.268 163.465C353.645 170.137 342.239 179.589 335.248 184.222C328.257 188.855 315.746 195.341 307.652 198.492C299.557 201.828 285.391 206.09 276.376 207.943C267.361 209.797 250.252 211.835 217.504 213.318L233.142 209.982C241.789 208.129 252.275 205.534 256.691 204.422C261.29 203.125 264.05 201.272 263.682 199.974C263.314 198.677 254.299 178.662 243.997 155.311C233.51 132.146 224.495 113.798 223.943 114.354C223.392 114.91 217.136 137.705 196.899 214.244L183.653 214.8C176.478 214.986 170.591 214.615 170.591 213.874C170.407 212.947 179.422 179.959 210.145 68.5792L233.142 69.6912L247.124 99.3431C254.851 115.652 263.13 133.628 265.706 139.188C269.017 146.786 270.489 148.639 271.593 146.601C272.513 145.118 279.32 121.397 286.679 94.154C298.453 51.5294 299.925 44.3017 297.533 42.8191C296.061 41.7072 287.23 38.0007 278.216 34.4795C269.201 30.9583 255.403 26.5106 247.86 24.472C240.317 22.4334 226.151 19.2829 216.584 17.615C204.626 15.3911 188.988 14.4645 166.911 14.4645C140.051 14.4645 131.588 15.0204 116.319 18.5416C106.2 20.9508 90.9302 25.5839 82.2835 29.1051C73.6367 32.6263 61.3104 38.742 54.6874 42.6338C48.0643 46.7109 37.0259 55.2359 30.0348 61.5369C23.0438 68.0233 14.765 77.2895 11.6374 82.1079C8.50989 87.1117 5.75028 90.6329 5.38233 90.0769C5.19836 89.5209 7.77399 83.9612 10.9015 77.6601C14.2131 71.3591 21.572 61.5369 27.0913 55.9772C32.6105 50.2321 43.4649 41.7072 51.0079 36.8887C58.5508 32.0703 71.429 25.5839 79.5238 22.4334C87.6187 19.2829 102.153 14.6498 111.719 12.2406C121.286 9.83134 135.82 6.86615 143.915 5.93953C152.01 4.82758 161.024 3.71563 164.152 3.34498C167.279 2.97433 177.214 2.41836 186.229 2.41836ZM304.156 133.628C296.613 163.651 290.726 188.484 291.094 188.855C291.646 189.04 295.141 187.558 299.005 185.704C302.684 183.666 310.043 178.477 315.379 174.029C320.53 169.581 328.073 161.983 332.12 156.794C336.168 151.79 341.319 143.45 343.711 138.261C346.654 131.59 347.758 125.289 347.942 116.022C347.942 105.274 347.022 101.011 342.423 91.0035C339.295 84.3318 334.144 75.8069 331.016 72.1004C327.705 68.2086 324.393 65.0581 323.289 65.0581C322.37 65.0581 320.714 68.2086 319.794 72.1004C318.874 75.8069 311.699 103.606 304.156 133.628Z" fill="#E9C500"/>
<path fill-rule="evenodd" clip-rule="evenodd" d="M177.031 35.7769L159.553 38.3714C149.987 39.854 136.925 42.6339 118.895 47.4523L106.201 98.4166C97.7381 132.887 93.5067 153.087 93.5067 161.056C93.3227 171.064 94.0586 173.288 98.474 178.291C102.705 183.295 104.913 184.222 114.48 185.148C124.966 185.89 125.886 185.704 132.693 179.774C136.557 176.253 141.524 170.137 143.364 166.06C145.387 161.983 151.826 139.003 168.2 71.5445L181.262 71.1739C193.037 70.6179 194.508 70.9885 193.589 73.9537C193.221 75.6216 188.621 94.5247 183.654 116.022C178.687 137.52 172.799 160.315 170.592 166.987C168.384 173.658 164.705 182.369 162.497 186.446C160.105 190.523 154.954 196.639 151.091 199.974C147.043 203.31 138.764 207.573 131.957 209.797C125.334 211.65 116.687 213.318 112.64 213.318C108.041 213.318 106.017 213.874 107.121 214.986C108.225 215.912 114.848 218.692 121.839 221.287C128.83 223.881 144.284 227.773 155.874 230.182C172.432 233.333 183.286 234.259 206.467 234.259C222.656 234.259 242.526 233.333 250.62 232.036C258.715 230.738 272.881 227.773 281.896 225.364C290.911 223.14 303.789 218.692 310.412 215.727C317.035 212.762 328.625 206.275 336.168 201.272C343.711 196.453 353.83 188.484 358.429 183.851C363.029 179.218 369.468 170.693 372.595 165.133C375.907 159.574 378.482 156.053 378.482 157.35C378.482 158.462 374.067 166.06 368.916 173.844C363.581 181.627 354.566 192.005 349.047 196.639C343.527 201.272 333.041 208.499 326.05 212.762C319.059 217.024 306.181 223.325 297.534 227.032C288.887 230.553 274.353 235.557 265.338 237.966C256.324 240.561 240.502 243.526 230.383 244.823C218.241 246.491 201.683 246.862 181.63 246.12C159.921 245.379 145.019 243.711 129.198 240.375C117.055 237.781 100.866 233.518 93.3227 230.738C85.7798 228.144 74.5574 223.325 68.4862 220.36C62.4151 217.21 52.4805 211.279 46.4094 206.831C40.3382 202.569 30.4036 193.673 24.3325 187.187C18.2614 180.515 10.9024 170.137 7.77483 164.207C2.80754 154.014 2.25562 151.419 2.25562 134.555C2.25562 117.69 2.80754 115.096 7.59086 105.83C10.5344 100.27 17.5255 90.6329 23.2286 84.7025C28.9318 78.7722 38.8664 70.2472 45.4895 65.9848C52.1126 61.537 62.5991 55.9772 69.0382 53.1974C75.2933 50.6028 88.9074 46.3404 99.3939 43.7458C109.696 41.1513 124.414 38.3714 131.957 37.4448C139.5 36.7035 152.746 35.7769 177.031 35.7769V35.7769ZM58.7356 84.1466C53.0324 89.7063 46.5933 98.7872 43.0978 105.83C37.9466 116.208 37.2107 119.729 37.2107 132.702C37.2107 145.674 37.9466 149.196 43.0978 159.574C46.5933 166.801 53.2164 175.697 59.2875 181.813C67.7504 190.152 69.2221 191.079 67.7503 187.002C66.6465 184.037 65.3587 176.624 64.8068 170.323C63.8869 160.5 65.3587 151.419 74.5574 111.389C80.6285 85.4438 85.4118 64.1315 85.2279 63.9462C84.8599 63.7609 81.1805 65.9848 76.5811 69.1353C72.1657 72.1005 64.0709 78.9575 58.7356 84.1466Z" fill="#16245A"/>
<path d="M174.455 70.9883C170.04 71.359 166.912 70.9883 167.648 70.247C168.384 69.3204 173.167 68.9498 178.503 68.9498C183.838 69.1351 186.781 69.5057 185.31 69.8764C183.838 70.0617 178.871 70.6177 174.455 70.9883Z" fill="#16245A"/>
<path d="M0.783753 137.335C0.231831 140.114 0.0478571 139.002 0.0478571 134.555C-0.136117 130.478 0.231831 128.439 0.783753 129.922C1.1517 131.404 1.1517 134.74 0.783753 137.335Z" fill="#16245A"/>
<path d="M212.906 235.001C210.33 235.371 205.363 235.371 201.867 235.001C198.372 234.63 200.395 234.259 206.467 234.259C212.538 234.259 215.481 234.63 212.906 235.001Z" fill="#16245A"/>
<path d="M198.924 247.973C196.9 248.344 192.669 248.344 189.725 247.973C186.781 247.603 188.437 247.232 193.588 247.232C198.556 247.232 201.131 247.603 198.924 247.973Z" fill="#16245A"/>
<path d="M179.791 14.4643C178.319 14.8349 175.375 14.8349 173.352 14.4643C171.328 13.9083 172.616 13.5377 176.111 13.5377C179.607 13.5377 181.262 13.9083 179.791 14.4643Z" fill="#F0E400" fill-opacity="0.75"/>
<path d="M227.624 68.2084C224.128 68.5791 218.793 68.5791 215.666 68.2084C212.538 67.8378 215.482 67.4671 222.105 67.4671C228.728 67.4671 231.119 67.8378 227.624 68.2084Z" fill="#F0E400" fill-opacity="0.75"/>
<path d="M219.897 214.615C218.241 214.985 214.93 214.985 212.538 214.615C210.146 214.244 211.618 213.874 215.666 213.874C219.713 213.688 221.553 214.059 219.897 214.615Z" fill="#F0E400" fill-opacity="0.75"/>
<path d="M169.672 34.85C165.624 35.2207 159.921 35.2207 156.794 34.85C153.666 34.4794 157.162 34.1087 164.153 34.1087C171.144 34.1087 173.719 34.4794 169.672 34.85Z" fill="#16245A"/>
<path d="M353.646 171.62L358.981 165.689C361.924 162.353 364.684 159.574 365.052 159.574C365.42 159.574 365.604 159.759 365.604 160.13C365.604 160.315 363.028 162.909 353.646 171.62Z" fill="#F0E400" fill-opacity="0.63"/>
<path d="M194.507 1.49179C191.012 1.86244 185.677 1.86244 182.549 1.49179C179.422 1.12114 182.365 0.750488 188.988 0.750488C195.611 0.750488 198.003 1.12114 194.507 1.49179Z" fill="#F0E400" fill-opacity="0.25"/>
<path d="M349.967 197.565L355.302 191.635C358.246 188.299 361.005 185.519 361.373 185.519C361.741 185.519 361.925 185.704 361.925 186.075C361.925 186.26 359.35 188.855 349.967 197.565Z" fill="#16245A"/>
<path d="M56.8955 182.739C53.5839 179.589 51.0083 176.994 51.0083 176.809C51.0083 176.438 51.5602 176.253 52.1121 176.253C52.848 176.253 55.4237 179.033 62.9666 188.299L56.8955 182.739Z" fill="#16245A"/>
<path d="M65.1741 168.84C64.8062 171.434 64.4382 169.766 64.4382 165.133C64.4382 160.5 64.8062 158.462 65.1741 160.5C65.5421 162.539 65.5421 166.245 65.1741 168.84Z" fill="#16245A"/>
<path d="M58.7353 182.739C55.4238 179.589 52.8481 176.994 52.8481 176.809C52.8481 176.438 53.4001 176.253 53.952 176.253C54.6879 176.253 57.2635 179.033 64.8065 188.299L58.7353 182.739Z" fill="#16245A"/>
<path d="M43.0455 334.75V288.205H52.8864V326.637H72.8409V334.75H43.0455ZM88.5682 334.75H78.0227L94.0909 288.205H106.773L122.818 334.75H112.273L100.614 298.841H100.25L88.5682 334.75ZM87.9091 316.455H112.818V324.137H87.9091V316.455ZM171.983 288.205H181.824V318.432C181.824 321.826 181.013 324.796 179.392 327.341C177.786 329.887 175.536 331.872 172.642 333.296C169.748 334.705 166.377 335.41 162.528 335.41C158.665 335.41 155.286 334.705 152.392 333.296C149.498 331.872 147.248 329.887 145.642 327.341C144.036 324.796 143.233 321.826 143.233 318.432V288.205H153.074V317.591C153.074 319.364 153.46 320.94 154.233 322.319C155.021 323.697 156.127 324.781 157.551 325.569C158.975 326.357 160.634 326.75 162.528 326.75C164.438 326.75 166.097 326.357 167.506 325.569C168.93 324.781 170.028 323.697 170.801 322.319C171.589 320.94 171.983 319.364 171.983 317.591V288.205ZM228.852 288.205V334.75H220.352L200.102 305.455H199.761V334.75H189.92V288.205H198.557L218.648 317.478H219.057V288.205H228.852ZM246.824 288.205V334.75H236.983V288.205H246.824ZM297.693 311.478C297.693 316.554 296.731 320.872 294.807 324.432C292.898 327.993 290.292 330.713 286.989 332.591C283.701 334.455 280.004 335.387 275.898 335.387C271.761 335.387 268.049 334.447 264.761 332.569C261.473 330.69 258.875 327.97 256.966 324.41C255.057 320.849 254.102 316.538 254.102 311.478C254.102 306.402 255.057 302.084 256.966 298.523C258.875 294.963 261.473 292.25 264.761 290.387C268.049 288.508 271.761 287.569 275.898 287.569C280.004 287.569 283.701 288.508 286.989 290.387C290.292 292.25 292.898 294.963 294.807 298.523C296.731 302.084 297.693 306.402 297.693 311.478ZM287.716 311.478C287.716 308.19 287.223 305.417 286.239 303.16C285.269 300.902 283.898 299.19 282.125 298.023C280.352 296.857 278.277 296.273 275.898 296.273C273.519 296.273 271.443 296.857 269.67 298.023C267.898 299.19 266.519 300.902 265.534 303.16C264.564 305.417 264.08 308.19 264.08 311.478C264.08 314.766 264.564 317.538 265.534 319.796C266.519 322.054 267.898 323.766 269.67 324.932C271.443 326.099 273.519 326.682 275.898 326.682C278.277 326.682 280.352 326.099 282.125 324.932C283.898 323.766 285.269 322.054 286.239 319.796C287.223 317.538 287.716 314.766 287.716 311.478ZM272.42 283.705L277.239 273.364H286.193L279.261 283.705H272.42ZM343.915 288.205V334.75H335.415L315.165 305.455H314.824V334.75H304.983V288.205H313.619L333.71 317.478H334.119V288.205H343.915Z" fill="#16245A"/>
</svg>
