<svg width="453" height="418" viewBox="0 0 453 418" fill="none" xmlns="http://www.w3.org/2000/svg">
<rect x="6.5" y="6.5" width="440" height="404.501" stroke="#233475" stroke-width="13"/>
<path fill-rule="evenodd" clip-rule="evenodd" d="M222.229 37.6679C231.244 37.4825 246.513 38.2238 255.896 39.1505C265.095 40.2624 279.261 42.301 286.988 43.9689C294.899 45.4515 309.617 49.5286 319.735 52.8645C329.854 56.3857 344.388 62.1307 351.931 66.0225C359.473 69.9143 370.512 76.2154 376.399 80.1072C382.102 84.1843 390.933 92.1533 395.716 98.0837C400.5 103.829 407.307 114.392 410.802 121.62C416.689 133.481 417.241 135.89 417.241 151.272C417.241 165.171 416.505 169.434 412.826 177.217C410.25 182.406 402.891 192.043 396.268 198.715C389.645 205.387 378.239 214.838 371.248 219.471C364.257 224.104 351.747 230.591 343.652 233.741C335.557 237.077 321.391 241.34 312.376 243.193C303.361 245.046 286.252 247.085 253.504 248.567L269.142 245.231C277.789 243.378 288.276 240.784 292.691 239.672C297.29 238.374 300.05 236.521 299.682 235.224C299.314 233.927 290.299 213.912 279.997 190.561C269.51 167.395 260.495 149.048 259.944 149.604C259.392 150.16 253.137 172.955 232.899 249.494L219.653 250.05C212.478 250.235 206.591 249.865 206.591 249.123C206.407 248.197 215.422 215.209 246.146 103.829L269.142 104.941L283.124 134.593C290.851 150.901 299.13 168.878 301.706 174.437C305.017 182.036 306.489 183.889 307.593 181.85C308.513 180.368 315.32 156.646 322.679 129.404C334.453 86.7789 335.925 79.5512 333.533 78.0686C332.061 76.9567 323.231 73.2502 314.216 69.729C305.201 66.2079 291.403 61.7601 283.86 59.7215C276.317 57.6829 262.151 54.5324 252.585 52.8645C240.626 50.6406 224.988 49.714 202.912 49.714C176.051 49.714 167.589 50.2699 152.319 53.7911C142.2 56.2003 126.93 60.8334 118.284 64.3546C109.637 67.8758 97.3105 73.9915 90.6875 77.8833C84.0644 81.9604 73.026 90.4854 66.035 96.7864C59.044 103.273 50.7651 112.539 47.6376 117.357C44.51 122.361 41.7504 125.882 41.3825 125.326C41.1985 124.77 43.7741 119.211 46.9017 112.91C50.2132 106.609 57.5722 96.7864 63.0914 91.2267C68.6106 85.4816 79.4651 76.9567 87.008 72.1382C94.5509 67.3198 107.429 60.8334 115.524 57.6829C123.619 54.5324 138.153 49.8993 147.719 47.4901C157.286 45.0809 171.82 42.1157 179.915 41.189C188.01 40.0771 197.024 38.9651 200.152 38.5945C203.28 38.2238 213.214 37.6679 222.229 37.6679ZM340.156 168.878C332.613 198.9 326.726 223.734 327.094 224.104C327.646 224.29 331.141 222.807 335.005 220.954C338.684 218.915 346.043 213.726 351.379 209.278C356.53 204.831 364.073 197.232 368.12 192.043C372.168 187.04 377.319 178.7 379.711 173.511C382.654 166.839 383.758 160.538 383.942 151.272C383.942 140.523 383.022 136.261 378.423 126.253C375.295 119.581 370.144 111.056 367.016 107.35C363.705 103.458 360.393 100.308 359.289 100.308C358.37 100.308 356.714 103.458 355.794 107.35C354.874 111.056 347.699 138.855 340.156 168.878Z" fill="#E9C500"/>
<path fill-rule="evenodd" clip-rule="evenodd" d="M213.031 71.0264L195.553 73.6209C185.987 75.1035 172.924 77.8834 154.895 82.7018L142.201 133.666C133.738 168.136 129.507 188.337 129.507 196.306C129.323 206.313 130.059 208.537 134.474 213.541C138.705 218.545 140.913 219.471 150.48 220.398C160.966 221.139 161.886 220.954 168.693 215.024C172.556 211.502 177.524 205.387 179.364 201.31C181.387 197.232 187.826 174.252 204.2 106.794L217.262 106.423C229.036 105.867 230.508 106.238 229.588 109.203C229.22 110.871 224.621 129.774 219.654 151.272C214.687 172.77 208.799 195.564 206.592 202.236C204.384 208.908 200.704 217.618 198.497 221.695C196.105 225.772 190.954 231.888 187.09 235.224C183.043 238.56 174.764 242.822 167.957 245.046C161.334 246.899 152.687 248.567 148.64 248.567C144.041 248.567 142.017 249.123 143.121 250.235C144.225 251.162 150.848 253.942 157.839 256.536C164.83 259.131 180.283 263.023 191.874 265.432C208.431 268.582 219.286 269.509 242.467 269.509C258.656 269.509 278.525 268.582 286.62 267.285C294.715 265.988 308.881 263.023 317.896 260.613C326.911 258.39 339.789 253.942 346.412 250.977C353.035 248.011 364.625 241.525 372.168 236.521C379.711 231.703 389.83 223.734 394.429 219.101C399.028 214.468 405.468 205.943 408.595 200.383C411.907 194.823 414.482 191.302 414.482 192.599C414.482 193.711 410.067 201.31 404.916 209.093C399.58 216.877 390.566 227.255 385.046 231.888C379.527 236.521 369.041 243.749 362.05 248.011C355.059 252.274 342.18 258.575 333.534 262.281C324.887 265.803 310.353 270.806 301.338 273.215C292.324 275.81 276.502 278.775 266.383 280.073C254.241 281.74 237.683 282.111 217.63 281.37C195.921 280.628 181.019 278.961 165.198 275.625C153.055 273.03 136.866 268.768 129.323 265.988C121.78 263.393 110.557 258.575 104.486 255.61C98.415 252.459 88.4804 246.529 82.4092 242.081C76.3381 237.819 66.4035 228.923 60.3324 222.437C54.2612 215.765 46.9023 205.387 43.7747 199.456C38.8074 189.263 38.2555 186.669 38.2555 169.804C38.2555 152.94 38.8074 150.345 43.5907 141.079C46.5343 135.519 53.5253 125.882 59.2285 119.952C64.9317 114.022 74.8663 105.497 81.4894 101.234C88.1124 96.7865 98.599 91.2267 105.038 88.4469C111.293 85.8523 124.907 81.5899 135.394 78.9953C145.696 76.4008 160.414 73.6209 167.957 72.6943C175.5 71.953 188.746 71.0264 213.031 71.0264V71.0264ZM94.7355 119.396C89.0323 124.956 82.5932 134.037 79.0977 141.079C73.9464 151.457 73.2105 154.978 73.2105 167.951C73.2105 180.924 73.9464 184.445 79.0977 194.823C82.5932 202.051 89.2163 210.946 95.2874 217.062C103.75 225.402 105.222 226.328 103.75 222.251C102.646 219.286 101.359 211.873 100.807 205.572C99.8868 195.75 101.359 186.669 110.557 146.639C116.628 120.693 121.412 99.381 121.228 99.1957C120.86 99.0104 117.18 101.234 112.581 104.385C108.166 107.35 100.071 114.207 94.7355 119.396Z" fill="#16245A"/>
<path d="M210.455 106.238C206.04 106.609 202.912 106.238 203.648 105.497C204.384 104.57 209.167 104.199 214.503 104.199C219.838 104.385 222.781 104.755 221.31 105.126C219.838 105.311 214.871 105.867 210.455 106.238Z" fill="#16245A"/>
<path d="M36.7838 172.584C36.2318 175.364 36.0479 174.252 36.0479 169.804C35.8639 165.727 36.2318 163.688 36.7838 165.171C37.1517 166.654 37.1517 169.99 36.7838 172.584Z" fill="#16245A"/>
<path d="M248.906 270.25C246.33 270.621 241.363 270.621 237.867 270.25C234.372 269.879 236.395 269.509 242.467 269.509C248.538 269.509 251.481 269.879 248.906 270.25Z" fill="#16245A"/>
<path d="M234.924 283.223C232.9 283.594 228.669 283.594 225.725 283.223C222.781 282.852 224.437 282.482 229.588 282.482C234.556 282.482 237.131 282.852 234.924 283.223Z" fill="#16245A"/>
<path d="M215.791 49.7137C214.319 50.0844 211.375 50.0844 209.352 49.7137C207.328 49.1578 208.616 48.7871 212.111 48.7871C215.607 48.7871 217.262 49.1578 215.791 49.7137Z" fill="#F0E400" fill-opacity="0.75"/>
<path d="M263.624 103.458C260.128 103.829 254.793 103.829 251.666 103.458C248.538 103.087 251.482 102.717 258.105 102.717C264.728 102.717 267.119 103.087 263.624 103.458Z" fill="#F0E400" fill-opacity="0.75"/>
<path d="M255.897 249.864C254.241 250.235 250.93 250.235 248.538 249.864C246.146 249.494 247.618 249.123 251.666 249.123C255.713 248.938 257.553 249.308 255.897 249.864Z" fill="#F0E400" fill-opacity="0.75"/>
<path d="M205.672 70.0996C201.624 70.4702 195.921 70.4702 192.794 70.0996C189.666 69.7289 193.162 69.3583 200.153 69.3583C207.144 69.3583 209.719 69.7289 205.672 70.0996Z" fill="#16245A"/>
<path d="M389.646 206.869L394.981 200.939C397.924 197.603 400.684 194.823 401.052 194.823C401.42 194.823 401.604 195.008 401.604 195.379C401.604 195.564 399.028 198.159 389.646 206.869Z" fill="#F0E400" fill-opacity="0.63"/>
<path d="M230.507 36.7413C227.012 37.1119 221.677 37.1119 218.549 36.7413C215.421 36.3706 218.365 36 224.988 36C231.611 36 234.003 36.3706 230.507 36.7413Z" fill="#F0E400" fill-opacity="0.25"/>
<path d="M385.967 232.815L391.302 226.884C394.246 223.548 397.005 220.769 397.373 220.769C397.741 220.769 397.925 220.954 397.925 221.325C397.925 221.51 395.35 224.104 385.967 232.815Z" fill="#16245A"/>
<path d="M92.8955 217.989C89.5839 214.838 87.0083 212.244 87.0083 212.058C87.0083 211.688 87.5602 211.502 88.1121 211.502C88.848 211.502 91.4237 214.282 98.9666 223.548L92.8955 217.989Z" fill="#16245A"/>
<path d="M101.174 204.089C100.806 206.684 100.438 205.016 100.438 200.383C100.438 195.75 100.806 193.711 101.174 195.75C101.542 197.788 101.542 201.495 101.174 204.089Z" fill="#16245A"/>
<path d="M94.7353 217.989C91.4238 214.838 88.8481 212.244 88.8481 212.058C88.8481 211.688 89.4001 211.502 89.952 211.502C90.6879 211.502 93.2635 214.282 100.806 223.548L94.7353 217.989Z" fill="#16245A"/>
<path d="M79.0455 370V323.455H88.8864V361.886H108.841V370H79.0455ZM124.568 370H114.023L130.091 323.455H142.773L158.818 370H148.273L136.614 334.091H136.25L124.568 370ZM123.909 351.705H148.818V359.386H123.909V351.705ZM207.983 323.455H217.824V353.682C217.824 357.076 217.013 360.045 215.392 362.591C213.786 365.136 211.536 367.121 208.642 368.545C205.748 369.955 202.377 370.659 198.528 370.659C194.665 370.659 191.286 369.955 188.392 368.545C185.498 367.121 183.248 365.136 181.642 362.591C180.036 360.045 179.233 357.076 179.233 353.682V323.455H189.074V352.841C189.074 354.614 189.46 356.189 190.233 357.568C191.021 358.947 192.127 360.03 193.551 360.818C194.975 361.606 196.634 362 198.528 362C200.438 362 202.097 361.606 203.506 360.818C204.93 360.03 206.028 358.947 206.801 357.568C207.589 356.189 207.983 354.614 207.983 352.841V323.455ZM264.852 323.455V370H256.352L236.102 340.705H235.761V370H225.92V323.455H234.557L254.648 352.727H255.057V323.455H264.852ZM282.824 323.455V370H272.983V323.455H282.824ZM333.693 346.727C333.693 351.803 332.731 356.121 330.807 359.682C328.898 363.242 326.292 365.962 322.989 367.841C319.701 369.705 316.004 370.636 311.898 370.636C307.761 370.636 304.049 369.697 300.761 367.818C297.473 365.939 294.875 363.22 292.966 359.659C291.057 356.098 290.102 351.788 290.102 346.727C290.102 341.652 291.057 337.333 292.966 333.773C294.875 330.212 297.473 327.5 300.761 325.636C304.049 323.758 307.761 322.818 311.898 322.818C316.004 322.818 319.701 323.758 322.989 325.636C326.292 327.5 328.898 330.212 330.807 333.773C332.731 337.333 333.693 341.652 333.693 346.727ZM323.716 346.727C323.716 343.439 323.223 340.667 322.239 338.409C321.269 336.152 319.898 334.439 318.125 333.273C316.352 332.106 314.277 331.523 311.898 331.523C309.519 331.523 307.443 332.106 305.67 333.273C303.898 334.439 302.519 336.152 301.534 338.409C300.564 340.667 300.08 343.439 300.08 346.727C300.08 350.015 300.564 352.788 301.534 355.045C302.519 357.303 303.898 359.015 305.67 360.182C307.443 361.348 309.519 361.932 311.898 361.932C314.277 361.932 316.352 361.348 318.125 360.182C319.898 359.015 321.269 357.303 322.239 355.045C323.223 352.788 323.716 350.015 323.716 346.727ZM308.42 318.955L313.239 308.614H322.193L315.261 318.955H308.42ZM379.915 323.455V370H371.415L351.165 340.705H350.824V370H340.983V323.455H349.619L369.71 352.727H370.119V323.455H379.915Z" fill="#16245A"/>
</svg>
